<svg width="769" height="114" viewBox="0 0 769 114" fill="none" xmlns="http://www.w3.org/2000/svg">
<path d="M29.2 72.6V35.9H32.9C43.9 35.9 48.8 40.7 48.8 53.8V54.6C48.8 67.1 44.1 72.6 33 72.6H29.2ZM6.5 90H33.8C59 90 72.4 76.9 72.4 54.1V53.4C72.4 30.7 59.4 18.5 33.8 18.5H6.5V90ZM96.4094 91.3C104.909 91.3 109.509 87.6 111.709 84V90H130.709V56.2C130.709 42.4 121.509 36.2 106.309 36.2C91.3094 36.2 81.3094 42.7 80.5094 55.5H98.9094C99.2094 52.8 100.609 49.9 105.109 49.9C110.409 49.9 111.209 53.1 111.209 57.5V58.4H106.709C88.6094 58.4 78.6094 63.2 78.6094 75.5C78.6094 86.7 87.0094 91.3 96.4094 91.3ZM103.509 78.1C99.9094 78.1 98.0094 76.5 98.0094 74C98.0094 70.3 100.409 69 107.009 69H111.209V71.7C111.209 75.6 108.009 78.1 103.509 78.1ZM141.805 90H161.505V61.1C161.505 54.9 164.405 52 169.305 52C174.005 52 175.905 54.7 175.905 60V90H195.605V55.6C195.605 42.6 188.705 36.3 178.805 36.3C170.005 36.3 164.405 40.6 161.505 46.1V37.7H141.805V90ZM207.296 90H226.896V37.7H207.296V90ZM217.096 33.8C223.096 33.8 227.696 29.6 227.696 23.9C227.696 18.1 223.096 13.9 217.096 13.9C210.996 13.9 206.396 18.1 206.396 23.9C206.396 29.6 210.996 33.8 217.096 33.8ZM265.37 91.3C281.97 91.3 291.07 84.3 292.67 72.3H274.27C273.67 75.3 271.57 77.9 266.07 77.9C260.47 77.9 256.77 74.5 256.27 68.2H292.57V63.4C292.57 44.6 280.07 36.2 265.37 36.2C249.37 36.2 236.37 46.7 236.37 63.7V64.5C236.37 81.8 248.67 91.3 265.37 91.3ZM256.37 57.9C257.17 52 260.57 48.9 265.37 48.9C270.67 48.9 273.37 52.3 273.57 57.9H256.37ZM301.821 90H321.421V15H301.821V90Z" fill="#444141"/>
<path d="M427.75 80.75L451.5 57L427.75 33.25M380.25 33.25L356.5 57L380.25 80.75M413.5 14.25L394.5 99.75" stroke="#1962D5" stroke-width="12" stroke-linecap="round" stroke-linejoin="round"/>
<path d="M481.9 90H503L506.2 78.1H528.8L532.1 90H556.1L533.7 18.5H504.4L481.9 90ZM517.6 36.8L524.6 62.7H510.5L517.6 36.8ZM565.334 107.4H584.034L611.934 37.7H593.334L584.134 63.8L574.234 37.7H552.934L573.834 84.8L565.334 107.4ZM642.467 91.3C659.067 91.3 668.167 84.3 669.767 72.3H651.367C650.767 75.3 648.667 77.9 643.167 77.9C637.567 77.9 633.867 74.5 633.367 68.2H669.667V63.4C669.667 44.6 657.167 36.2 642.467 36.2C626.467 36.2 613.467 46.7 613.467 63.7V64.5C613.467 81.8 625.767 91.3 642.467 91.3ZM633.467 57.9C634.267 52 637.667 48.9 642.467 48.9C647.767 48.9 650.467 52.3 650.667 57.9H633.467ZM678.419 90H698.119V61.1C698.119 54.9 701.019 52 705.919 52C710.619 52 712.519 54.7 712.519 60V90H732.219V55.6C732.219 42.6 725.319 36.3 715.419 36.3C706.619 36.3 701.019 40.6 698.119 46.1V37.7H678.419V90ZM743.909 90H763.509V37.7H743.909V90ZM753.709 33.8C759.709 33.8 764.309 29.6 764.309 23.9C764.309 18.1 759.709 13.9 753.709 13.9C747.609 13.9 743.009 18.1 743.009 23.9C743.009 29.6 747.609 33.8 753.709 33.8Z" fill="#444141"/>
</svg>
