<svg width="138" height="22" viewBox="0 0 138 22" fill="none" xmlns="http://www.w3.org/2000/svg">
<path d="M0.0170455 10.8864V9.75L9.16477 5.09091V6.90909L2.14773 10.2898L2.20455 10.1761V10.4602L2.14773 10.3466L9.16477 13.7273V15.5455L0.0170455 10.8864ZM130.622 4.1H132.922L137.762 8.68L132.922 13.28H130.622L135.462 8.68L130.622 4.1Z" fill="#1962D5"/>
<path d="M17.0636 2.06C18.5836 2.06 19.8969 2.34667 21.0036 2.92C22.1236 3.48 22.9769 4.28667 23.5636 5.34C24.1636 6.39333 24.4636 7.63333 24.4636 9.06C24.4636 10.4867 24.1636 11.7267 23.5636 12.78C22.9769 13.82 22.1236 14.62 21.0036 15.18C19.8969 15.7267 18.5836 16 17.0636 16H12.7236V2.06H17.0636ZM17.0636 14.5C18.8636 14.5 20.2369 14.0267 21.1836 13.08C22.1303 12.12 22.6036 10.78 22.6036 9.06C22.6036 7.32667 22.1236 5.97333 21.1636 5C20.2169 4.02667 18.8503 3.54 17.0636 3.54H14.5436V14.5H17.0636ZM26.1842 10.48C26.1842 9.36 26.4109 8.38 26.8642 7.54C27.3176 6.68667 27.9376 6.02667 28.7242 5.56C29.5242 5.09333 30.4109 4.86 31.3842 4.86C32.3442 4.86 33.1776 5.06667 33.8842 5.48C34.5909 5.89333 35.1176 6.41333 35.4642 7.04V5.04H37.3042V16H35.4642V13.96C35.1042 14.6 34.5642 15.1333 33.8442 15.56C33.1376 15.9733 32.3109 16.18 31.3642 16.18C30.3909 16.18 29.5109 15.94 28.7242 15.46C27.9376 14.98 27.3176 14.3067 26.8642 13.44C26.4109 12.5733 26.1842 11.5867 26.1842 10.48ZM35.4642 10.5C35.4642 9.67333 35.2976 8.95333 34.9642 8.34C34.6309 7.72667 34.1776 7.26 33.6042 6.94C33.0442 6.60667 32.4242 6.44 31.7442 6.44C31.0642 6.44 30.4442 6.6 29.8842 6.92C29.3242 7.24 28.8776 7.70667 28.5442 8.32C28.2109 8.93333 28.0442 9.65333 28.0442 10.48C28.0442 11.32 28.2109 12.0533 28.5442 12.68C28.8776 13.2933 29.3242 13.7667 29.8842 14.1C30.4442 14.42 31.0642 14.58 31.7442 14.58C32.4242 14.58 33.0442 14.42 33.6042 14.1C34.1776 13.7667 34.6309 13.2933 34.9642 12.68C35.2976 12.0533 35.4642 11.3267 35.4642 10.5ZM45.7198 4.84C47.0532 4.84 48.1332 5.24667 48.9598 6.06C49.7865 6.86 50.1998 8.02 50.1998 9.54V16H48.3998V9.8C48.3998 8.70667 48.1265 7.87333 47.5798 7.3C47.0332 6.71333 46.2865 6.42 45.3398 6.42C44.3798 6.42 43.6132 6.72 43.0398 7.32C42.4798 7.92 42.1998 8.79333 42.1998 9.94V16H40.3798V5.04H42.1998V6.6C42.5598 6.04 43.0465 5.60667 43.6598 5.3C44.2865 4.99333 44.9732 4.84 45.7198 4.84ZM54.1128 3.26C53.7661 3.26 53.4728 3.14 53.2328 2.9C52.9928 2.66 52.8728 2.36667 52.8728 2.02C52.8728 1.67333 52.9928 1.38 53.2328 1.14C53.4728 0.899999 53.7661 0.779999 54.1128 0.779999C54.4461 0.779999 54.7261 0.899999 54.9528 1.14C55.1928 1.38 55.3128 1.67333 55.3128 2.02C55.3128 2.36667 55.1928 2.66 54.9528 2.9C54.7261 3.14 54.4461 3.26 54.1128 3.26ZM54.9928 5.04V16H53.1728V5.04H54.9928ZM68.0947 10.1C68.0947 10.4467 68.0747 10.8133 68.0347 11.2H59.2747C59.3414 12.28 59.708 13.1267 60.3747 13.74C61.0547 14.34 61.8747 14.64 62.8347 14.64C63.6214 14.64 64.2747 14.46 64.7947 14.1C65.328 13.7267 65.7014 13.2333 65.9147 12.62H67.8747C67.5814 13.6733 66.9947 14.5333 66.1147 15.2C65.2347 15.8533 64.1414 16.18 62.8347 16.18C61.7947 16.18 60.8614 15.9467 60.0347 15.48C59.2214 15.0133 58.5814 14.3533 58.1147 13.5C57.648 12.6333 57.4147 11.6333 57.4147 10.5C57.4147 9.36667 57.6414 8.37333 58.0947 7.52C58.548 6.66667 59.1814 6.01333 59.9947 5.56C60.8214 5.09333 61.768 4.86 62.8347 4.86C63.8747 4.86 64.7947 5.08667 65.5947 5.54C66.3947 5.99333 67.008 6.62 67.4347 7.42C67.8747 8.20667 68.0947 9.1 68.0947 10.1ZM66.2147 9.72C66.2147 9.02667 66.0614 8.43333 65.7547 7.94C65.448 7.43333 65.028 7.05333 64.4947 6.8C63.9747 6.53333 63.3947 6.4 62.7547 6.4C61.8347 6.4 61.048 6.69333 60.3947 7.28C59.7547 7.86667 59.388 8.68 59.2947 9.72H66.2147ZM72.317 1.2V16H70.497V1.2H72.317ZM83.6589 12.9H77.5789L76.4589 16H74.5389L79.5789 2.14H81.6789L86.6989 16H84.7789L83.6589 12.9ZM83.1389 11.42L80.6189 4.38L78.0989 11.42H83.1389ZM98.3355 5.04L91.7355 21.16H89.8555L92.0155 15.88L87.5955 5.04H89.6155L93.0555 13.92L96.4555 5.04H98.3355ZM110.165 10.1C110.165 10.4467 110.145 10.8133 110.105 11.2H101.345C101.412 12.28 101.778 13.1267 102.445 13.74C103.125 14.34 103.945 14.64 104.905 14.64C105.692 14.64 106.345 14.46 106.865 14.1C107.398 13.7267 107.772 13.2333 107.985 12.62H109.945C109.652 13.6733 109.065 14.5333 108.185 15.2C107.305 15.8533 106.212 16.18 104.905 16.18C103.865 16.18 102.932 15.9467 102.105 15.48C101.292 15.0133 100.652 14.3533 100.185 13.5C99.7183 12.6333 99.485 11.6333 99.485 10.5C99.485 9.36667 99.7117 8.37333 100.165 7.52C100.618 6.66667 101.252 6.01333 102.065 5.56C102.892 5.09333 103.838 4.86 104.905 4.86C105.945 4.86 106.865 5.08667 107.665 5.54C108.465 5.99333 109.078 6.62 109.505 7.42C109.945 8.20667 110.165 9.1 110.165 10.1ZM108.285 9.72C108.285 9.02667 108.132 8.43333 107.825 7.94C107.518 7.43333 107.098 7.05333 106.565 6.8C106.045 6.53333 105.465 6.4 104.825 6.4C103.905 6.4 103.118 6.69333 102.465 7.28C101.825 7.86667 101.458 8.68 101.365 9.72H108.285ZM117.907 4.84C119.241 4.84 120.321 5.24667 121.147 6.06C121.974 6.86 122.387 8.02 122.387 9.54V16H120.587V9.8C120.587 8.70667 120.314 7.87333 119.767 7.3C119.221 6.71333 118.474 6.42 117.527 6.42C116.567 6.42 115.801 6.72 115.227 7.32C114.667 7.92 114.387 8.79333 114.387 9.94V16H112.567V5.04H114.387V6.6C114.747 6.04 115.234 5.60667 115.847 5.3C116.474 4.99333 117.161 4.84 117.907 4.84ZM126.3 3.26C125.954 3.26 125.66 3.14 125.42 2.9C125.18 2.66 125.06 2.36667 125.06 2.02C125.06 1.67333 125.18 1.38 125.42 1.14C125.66 0.899999 125.954 0.779999 126.3 0.779999C126.634 0.779999 126.914 0.899999 127.14 1.14C127.38 1.38 127.5 1.67333 127.5 2.02C127.5 2.36667 127.38 2.66 127.14 2.9C126.914 3.14 126.634 3.26 126.3 3.26ZM127.18 5.04V16H125.36V5.04H127.18Z" fill="#444141"/>
</svg>
